<?xml version="1.0" standalone="no"?>
<!DOCTYPE svg PUBLIC "-//W3C//DTD SVG 20010904//EN"
 "http://www.w3.org/TR/2001/REC-SVG-20010904/DTD/svg10.dtd">
<svg version="1.0" xmlns="http://www.w3.org/2000/svg"
 width="600.000000pt" height="600.000000pt" viewBox="0 0 600.000000 600.000000"
 preserveAspectRatio="xMidYMid meet">
<metadata>
Created by potrace 1.16, written by Peter Selinger 2001-2019
</metadata>
<g transform="translate(0.000000,600.000000) scale(0.100000,-0.100000)"
fill="#000000" stroke="none">
<path d="M1058 4911 c-121 -39 -208 -117 -261 -230 -40 -84 -49 -205 -22 -296
77 -266 393 -386 634 -242 234 140 274 457 81 661 -75 79 -167 119 -285 123
-68 2 -104 -2 -147 -16z"/>
<path d="M3505 4812 c-64 -31 -111 -77 -147 -145 -34 -64 -32 -184 4 -253 28
-54 86 -112 140 -140 20 -11 64 -19 114 -22 67 -4 89 -1 128 17 77 33 122 76
157 146 50 101 42 207 -22 301 -79 116 -243 158 -374 96z"/>
<path d="M4847 4826 c-168 -60 -245 -249 -168 -412 51 -107 143 -164 266 -164
93 0 151 24 217 90 45 45 60 69 73 115 57 193 -87 386 -285 385 -36 -1 -82 -7
-103 -14z"/>
<path d="M1793 3876 c-137 -45 -229 -194 -204 -331 28 -148 146 -248 296 -249
120 0 209 56 265 166 53 108 37 233 -42 323 -77 87 -209 126 -315 91z"/>
<path d="M4202 3876 c-60 -20 -114 -59 -149 -109 -45 -64 -58 -105 -58 -182 1
-88 32 -152 106 -219 188 -169 493 -30 491 225 0 116 -61 212 -167 266 -61 32
-159 40 -223 19z"/>
<path d="M984 3010 c-71 -28 -128 -81 -161 -148 -39 -79 -39 -184 -1 -257 117
-223 426 -225 537 -3 71 142 17 318 -120 393 -71 38 -179 45 -255 15z"/>
<path d="M2293 3014 c-60 -22 -128 -86 -160 -152 -37 -76 -40 -183 -6 -252 97
-196 346 -234 492 -74 63 68 85 133 78 220 -8 108 -67 198 -160 246 -55 28
-183 35 -244 12z"/>
<path d="M3544 3019 c-52 -15 -126 -71 -160 -122 -135 -197 16 -464 260 -460
120 2 245 97 276 210 18 61 8 168 -19 221 -64 125 -220 191 -357 151z"/>
<path d="M4847 3015 c-197 -72 -259 -313 -124 -478 49 -59 115 -91 204 -95
129 -7 226 47 288 159 25 46 29 65 29 129 1 125 -54 214 -166 270 -50 25 -73
30 -127 29 -36 0 -83 -7 -104 -14z"/>
<path d="M1005 1826 c-127 -40 -209 -152 -209 -286 1 -213 223 -356 415 -268
71 32 119 75 147 131 66 131 42 262 -67 359 -78 71 -187 95 -286 64z"/>
<path d="M3535 1823 c-101 -37 -174 -119 -195 -220 -49 -235 194 -431 411
-331 111 51 170 136 177 259 4 67 1 84 -20 131 -49 106 -139 168 -257 175 -46
2 -81 -2 -116 -14z"/>
<path d="M4870 1831 c-94 -31 -177 -107 -204 -188 -43 -125 4 -271 110 -344
153 -105 364 -48 446 120 32 66 32 177 -1 245 -31 63 -91 123 -149 149 -50 22
-161 32 -202 18z"/>
</g>
</svg>
